<svg width="18" height="18" viewBox="0 0 18 18" fill="none" xmlns="http://www.w3.org/2000/svg">
<rect width="18" height="18" fill="#1E1E1E"/>
<g id="Frame 1" clip-path="url(#clip0_0_1)">
<rect width="1600" height="4089" transform="translate(-706 -1796)" fill="white"/>
<rect id="Rectangle 5" x="-707" y="-256" width="1601" height="775" fill="#FFF9F4"/>
<g id="Frame 10">
<g id="Group 18">
<g id="Rectangle 7">
<rect x="-118" y="-21" width="275" height="118" rx="10" fill="white"/>
<rect x="-117.5" y="-20.5" width="274" height="117" rx="9.5" stroke="#111111" stroke-opacity="0.1"/>
</g>
<g id="Group 17">
<g id="Group 15">
<g id="Frame 9">
<g id="fi_2107957" clip-path="url(#clip1_0_1)">
<path id="Vector" d="M17.5222 6.43804L11.9887 5.59279L9.50849 0.309791C9.32324 -0.084709 8.67599 -0.084709 8.49074 0.309791L6.01124 5.59279L0.47774 6.43804C0.0232398 6.50779 -0.15826 7.06054 0.16049 7.38679L4.18049 11.5073L3.23024 17.3325C3.15449 17.7953 3.64874 18.1425 4.05749 17.9153L8.99999 15.1838L13.9425 17.916C14.3475 18.141 14.8462 17.8005 14.7697 17.3333L13.8195 11.508L17.8395 7.38754C18.1582 7.06054 17.976 6.50779 17.5222 6.43804Z" fill="#FFC107"/>
</g>
</g>
</g>
</g>
</g>
</g>
</g>
<defs>
<clipPath id="clip0_0_1">
<rect width="1600" height="4089" fill="white" transform="translate(-706 -1796)"/>
</clipPath>
<clipPath id="clip1_0_1">
<rect width="18" height="18" fill="white"/>
</clipPath>
</defs>
</svg>
